<svg xmlns="http://www.w3.org/2000/svg" width="240" height="240" viewBox="0 0 240 240" fill="none">
  <g opacity="0.5" stroke="white" stroke-width="1.2" stroke-linecap="round" stroke-linejoin="round">
    <path d="M21 42c6-8 17-10 24-4s8 17 2 24-16 8-24 3" />
    <path d="M94 26c8 0 14 6 14 14s-6 14-14 14-14-6-14-14 6-14 14-14Z" />
    <path d="M160 32l10 12-10 12-10-12 10-12Z" />
    <path d="M208 54c0-10 8-18 18-18" />
    <path d="M57 96h24M69 84v24" />
    <path d="M112 84c7 0 12 5 12 12s-5 12-12 12-12-5-12-12 5-12 12-12Z" />
    <path d="M158 86c10 0 18 8 18 18s-8 18-18 18" />
    <path d="M203 90l16 16-16 16" />
    <path d="M23 144l20 12-20 12-20-12 20-12Z" />
    <path d="M90 134c4 0 8 4 8 8s-4 8-8 8-8-4-8-8 4-8 8-8Z" />
    <path d="M130 140h30M145 125v30" />
    <path d="M198 138c7-6 17-5 23 2 6 8 5 18-2 24-7 6-17 5-23-2" />
    <path d="M34 196c0-10 8-18 18-18h12" />
    <path d="M102 180l10 12-10 12-10-12 10-12Z" />
    <path d="M168 176c8 0 14 6 14 14s-6 14-14 14-14-6-14-14 6-14 14-14Z" />
    <path d="M216 190h16M224 182v16" />
  </g>
</svg>
